<mxfile host="app.diagrams.net" agent="Mozilla/5.0 (Windows NT 10.0; Win64; x64; rv:132.0) Gecko/20100101 Firefox/132.0" version="26.0.6">
  <diagram name="Page-1" id="VjHRbFzv0Cym7xBPFqZu">
    <mxGraphModel dx="1134" dy="551" grid="1" gridSize="10" guides="1" tooltips="1" connect="1" arrows="1" fold="1" page="1" pageScale="1" pageWidth="850" pageHeight="1100" math="0" shadow="0">
      <root>
        <mxCell id="0" />
        <mxCell id="1" parent="0" />
        <mxCell id="9Ke6zN5fUkuVYWhAhbb1-7" value="" style="edgeStyle=orthogonalEdgeStyle;rounded=0;orthogonalLoop=1;jettySize=auto;html=1;" edge="1" parent="1" source="9Ke6zN5fUkuVYWhAhbb1-5" target="9Ke6zN5fUkuVYWhAhbb1-6">
          <mxGeometry relative="1" as="geometry" />
        </mxCell>
        <mxCell id="9Ke6zN5fUkuVYWhAhbb1-5" value="Data Source" style="whiteSpace=wrap;html=1;aspect=fixed;" vertex="1" parent="1">
          <mxGeometry x="20" y="300" width="80" height="80" as="geometry" />
        </mxCell>
        <mxCell id="9Ke6zN5fUkuVYWhAhbb1-6" value="&lt;div&gt;Data Ingestion&amp;nbsp;&lt;/div&gt;&lt;div&gt;layer&lt;/div&gt;" style="shape=step;perimeter=stepPerimeter;whiteSpace=wrap;html=1;fixedSize=1;" vertex="1" parent="1">
          <mxGeometry x="120" y="300" width="120" height="80" as="geometry" />
        </mxCell>
        <mxCell id="9Ke6zN5fUkuVYWhAhbb1-14" value="" style="edgeStyle=orthogonalEdgeStyle;rounded=0;orthogonalLoop=1;jettySize=auto;html=1;" edge="1" parent="1" source="9Ke6zN5fUkuVYWhAhbb1-10" target="9Ke6zN5fUkuVYWhAhbb1-13">
          <mxGeometry relative="1" as="geometry" />
        </mxCell>
        <mxCell id="9Ke6zN5fUkuVYWhAhbb1-11" value="" style="endArrow=classic;html=1;rounded=0;exitX=1;exitY=0.5;exitDx=0;exitDy=0;" edge="1" parent="1" source="9Ke6zN5fUkuVYWhAhbb1-10">
          <mxGeometry width="50" height="50" relative="1" as="geometry">
            <mxPoint x="340" y="380" as="sourcePoint" />
            <mxPoint x="330" y="340" as="targetPoint" />
          </mxGeometry>
        </mxCell>
        <mxCell id="9Ke6zN5fUkuVYWhAhbb1-13" value="Storage layer(Postgre/InfluxDB?)" style="rounded=0;whiteSpace=wrap;html=1;direction=south;" vertex="1" parent="1">
          <mxGeometry x="370" y="245" width="90" height="190" as="geometry" />
        </mxCell>
        <mxCell id="9Ke6zN5fUkuVYWhAhbb1-15" value="Visualization layer" style="rounded=0;whiteSpace=wrap;html=1;direction=south;" vertex="1" parent="1">
          <mxGeometry x="800" y="245" width="80" height="190" as="geometry" />
        </mxCell>
        <mxCell id="9Ke6zN5fUkuVYWhAhbb1-20" value="" style="edgeStyle=orthogonalEdgeStyle;rounded=0;orthogonalLoop=1;jettySize=auto;html=1;" edge="1" parent="1" source="9Ke6zN5fUkuVYWhAhbb1-16" target="9Ke6zN5fUkuVYWhAhbb1-19">
          <mxGeometry relative="1" as="geometry" />
        </mxCell>
        <mxCell id="9Ke6zN5fUkuVYWhAhbb1-16" value="&lt;font style=&quot;font-size: 11px;&quot;&gt;Orchestration layer(Airflow)&lt;/font&gt;" style="rounded=0;whiteSpace=wrap;html=1;direction=south;" vertex="1" parent="1">
          <mxGeometry x="555" y="10" width="80" height="190" as="geometry" />
        </mxCell>
        <mxCell id="9Ke6zN5fUkuVYWhAhbb1-17" value="" style="endArrow=classic;html=1;rounded=0;exitX=1;exitY=0.5;exitDx=0;exitDy=0;" edge="1" parent="1" source="9Ke6zN5fUkuVYWhAhbb1-6" target="9Ke6zN5fUkuVYWhAhbb1-10">
          <mxGeometry width="50" height="50" relative="1" as="geometry">
            <mxPoint x="240" y="340" as="sourcePoint" />
            <mxPoint x="330" y="340" as="targetPoint" />
          </mxGeometry>
        </mxCell>
        <mxCell id="9Ke6zN5fUkuVYWhAhbb1-10" value="ETL-layer" style="rounded=0;whiteSpace=wrap;html=1;direction=south;" vertex="1" parent="1">
          <mxGeometry x="280" y="245" width="60" height="190" as="geometry" />
        </mxCell>
        <mxCell id="9Ke6zN5fUkuVYWhAhbb1-19" value="ML-layer" style="rounded=0;whiteSpace=wrap;html=1;direction=south;" vertex="1" parent="1">
          <mxGeometry x="680" y="20" width="80" height="190" as="geometry" />
        </mxCell>
        <mxCell id="9Ke6zN5fUkuVYWhAhbb1-21" value="" style="endArrow=classic;html=1;rounded=0;exitX=1;exitY=0;exitDx=0;exitDy=0;entryX=0;entryY=1;entryDx=0;entryDy=0;" edge="1" parent="1" source="9Ke6zN5fUkuVYWhAhbb1-19" target="9Ke6zN5fUkuVYWhAhbb1-15">
          <mxGeometry width="50" height="50" relative="1" as="geometry">
            <mxPoint x="530" y="260" as="sourcePoint" />
            <mxPoint x="580" y="210" as="targetPoint" />
          </mxGeometry>
        </mxCell>
        <mxCell id="9Ke6zN5fUkuVYWhAhbb1-22" value="" style="endArrow=classic;html=1;rounded=0;exitX=0.547;exitY=0;exitDx=0;exitDy=0;exitPerimeter=0;entryX=0.542;entryY=1.025;entryDx=0;entryDy=0;entryPerimeter=0;" edge="1" parent="1" source="9Ke6zN5fUkuVYWhAhbb1-25" target="9Ke6zN5fUkuVYWhAhbb1-15">
          <mxGeometry width="50" height="50" relative="1" as="geometry">
            <mxPoint x="530" y="260" as="sourcePoint" />
            <mxPoint x="580" y="210" as="targetPoint" />
          </mxGeometry>
        </mxCell>
        <mxCell id="9Ke6zN5fUkuVYWhAhbb1-23" value="Access layer" style="rounded=0;whiteSpace=wrap;html=1;direction=south;" vertex="1" parent="1">
          <mxGeometry x="980" y="245" width="90" height="190" as="geometry" />
        </mxCell>
        <mxCell id="9Ke6zN5fUkuVYWhAhbb1-24" value="" style="endArrow=classic;startArrow=classic;html=1;rounded=0;exitX=0;exitY=0.5;exitDx=0;exitDy=0;entryX=1;entryY=0.5;entryDx=0;entryDy=0;" edge="1" parent="1" source="9Ke6zN5fUkuVYWhAhbb1-25" target="9Ke6zN5fUkuVYWhAhbb1-16">
          <mxGeometry width="50" height="50" relative="1" as="geometry">
            <mxPoint x="520" y="450" as="sourcePoint" />
            <mxPoint x="595" y="350" as="targetPoint" />
          </mxGeometry>
        </mxCell>
        <mxCell id="9Ke6zN5fUkuVYWhAhbb1-26" value="" style="endArrow=classic;html=1;rounded=0;exitX=0.547;exitY=0;exitDx=0;exitDy=0;exitPerimeter=0;entryX=0.542;entryY=1.025;entryDx=0;entryDy=0;entryPerimeter=0;" edge="1" parent="1" source="9Ke6zN5fUkuVYWhAhbb1-13" target="9Ke6zN5fUkuVYWhAhbb1-25">
          <mxGeometry width="50" height="50" relative="1" as="geometry">
            <mxPoint x="460" y="349" as="sourcePoint" />
            <mxPoint x="758" y="348" as="targetPoint" />
          </mxGeometry>
        </mxCell>
        <mxCell id="9Ke6zN5fUkuVYWhAhbb1-25" value="Processing&lt;br&gt;Layer" style="rounded=0;whiteSpace=wrap;html=1;direction=south;" vertex="1" parent="1">
          <mxGeometry x="515" y="290" width="165" height="110" as="geometry" />
        </mxCell>
        <mxCell id="9Ke6zN5fUkuVYWhAhbb1-27" value="" style="endArrow=classic;html=1;rounded=0;entryX=0.5;entryY=1;entryDx=0;entryDy=0;exitX=0.5;exitY=0;exitDx=0;exitDy=0;" edge="1" parent="1" source="9Ke6zN5fUkuVYWhAhbb1-15" target="9Ke6zN5fUkuVYWhAhbb1-23">
          <mxGeometry width="50" height="50" relative="1" as="geometry">
            <mxPoint x="840" y="410" as="sourcePoint" />
            <mxPoint x="890" y="360" as="targetPoint" />
          </mxGeometry>
        </mxCell>
      </root>
    </mxGraphModel>
  </diagram>
</mxfile>
